<svg xmlns="http://www.w3.org/2000/svg" viewBox="-1.5700 -0.8000 3.1400 1.6000">
  <polygon fill="#54704d" stroke="#1a1815" stroke-width="0.04" stroke-linejoin="round" points="1.4500,0.0000 1.4376,0.0888 1.4006,0.1760 1.3396,0.2602 1.2557,0.3400 1.1504,0.4140 1.0253,0.4808 0.8827,0.5395 0.7250,0.5889 0.5549,0.6282 0.3753,0.6568 0.1893,0.6742 0.0000,0.6800 -0.1893,0.6742 -0.3753,0.6568 -0.5549,0.6282 -0.7250,0.5889 -0.8827,0.5395 -1.0253,0.4808 -1.1504,0.4140 -1.2557,0.3400 -1.3396,0.2602 -1.4006,0.1760 -1.4376,0.0888 -1.4500,0.0000 -1.4376,-0.0888 -1.4006,-0.1760 -1.3396,-0.2602 -1.2557,-0.3400 -1.1504,-0.4140 -1.0253,-0.4808 -0.8827,-0.5395 -0.7250,-0.5889 -0.5549,-0.6282 -0.3753,-0.6568 -0.1893,-0.6742 -0.0000,-0.6800 0.1893,-0.6742 0.3753,-0.6568 0.5549,-0.6282 0.7250,-0.5889 0.8827,-0.5395 1.0253,-0.4808 1.1504,-0.4140 1.2557,-0.3400 1.3396,-0.2602 1.4006,-0.1760 1.4376,-0.0888"/>
</svg>
